<svg xmlns="http://www.w3.org/2000/svg" width="17.275" height="17.271" viewBox="0 0 17.275 17.271"><defs><style>.a{fill:#fff;}</style></defs><path class="a" d="M8.564,36.032a4.428,4.428,0,1,0,4.428,4.428A4.421,4.421,0,0,0,8.564,36.032Zm0,7.307a2.879,2.879,0,1,1,2.879-2.879,2.884,2.884,0,0,1-2.879,2.879Zm5.642-7.488a1.033,1.033,0,1,1-1.033-1.033A1.03,1.03,0,0,1,14.206,35.851ZM17.139,36.9a5.111,5.111,0,0,0-1.4-3.619,5.145,5.145,0,0,0-3.619-1.4c-1.426-.081-5.7-.081-7.126,0a5.137,5.137,0,0,0-3.619,1.391A5.128,5.128,0,0,0-.014,36.9c-.081,1.426-.081,5.7,0,7.126a5.111,5.111,0,0,0,1.4,3.619A5.151,5.151,0,0,0,5,49.035c1.426.081,5.7.081,7.126,0a5.111,5.111,0,0,0,3.619-1.4,5.145,5.145,0,0,0,1.4-3.619C17.22,42.6,17.22,38.325,17.139,36.9ZM15.3,45.551a2.915,2.915,0,0,1-1.642,1.642c-1.137.451-3.835.347-5.091.347s-3.958.1-5.091-.347a2.914,2.914,0,0,1-1.642-1.642c-.451-1.137-.347-3.835-.347-5.091s-.1-3.958.347-5.091a2.915,2.915,0,0,1,1.642-1.642c1.137-.451,3.835-.347,5.091-.347s3.958-.1,5.091.347A2.915,2.915,0,0,1,15.3,35.37c.451,1.137.347,3.835.347,5.091S15.748,44.418,15.3,45.551Z" transform="translate(0.075 -31.825)"/></svg>