<svg xmlns="http://www.w3.org/2000/svg" width="123.795" height="24.107" viewBox="0 0 123.795 24.107"><defs><style>.a{fill:#470f48;}</style></defs><g transform="translate(0.032 0.008)"><g transform="translate(-0.032 -0.008)"><path class="a" d="M11.21,3.915c-.079.125-.158.257-.237.392s-.158.27-.234.415A31.471,31.471,0,0,0,8.1,11.2c-.175.616-.33,1.239-.511,1.862s-.31,1.256-.438,1.888A14.525,14.525,0,0,0,6.9,16.442c-.056.491-.132.989-.227,1.5a9.106,9.106,0,0,1-.224,1.008,3.072,3.072,0,0,1-.428.949,1.144,1.144,0,0,1-.659.488A1.125,1.125,0,0,1,4.421,20a3.365,3.365,0,0,1-.659-.923,4.5,4.5,0,0,1-.346-1.035,5.7,5.7,0,0,1-.105-1.091c0-.372.016-.732.046-1.078A23.934,23.934,0,0,1,5,9.314,26.5,26.5,0,0,1,8.257,3.655C7.6,3.576,6.939,3.49,6.31,3.4a4.828,4.828,0,0,0-1.921.132,6.591,6.591,0,0,0-1.21.438,3.559,3.559,0,0,0-1.045.771,1.5,1.5,0,0,0-.178,1.849.8.8,0,0,0,.465.356,1.473,1.473,0,0,0,.593.026A3.065,3.065,0,0,0,3.643,6.8a5.672,5.672,0,0,1,.567-.188c.224-.1.372-.115.452-.059s.056.218-.069.484a2.172,2.172,0,0,1-.659.844,2.554,2.554,0,0,1-.956.481,2.132,2.132,0,0,1-1.068,0,2.109,2.109,0,0,1-.989-.616A3.5,3.5,0,0,1-.022,5.682a3.866,3.866,0,0,1,.392-2,5.273,5.273,0,0,1,1.318-1.7A6.193,6.193,0,0,1,3.6.87,8.569,8.569,0,0,1,6.3.32,13.723,13.723,0,0,1,8.91.5q1.279.214,2.538.521a21.092,21.092,0,0,0,2.518.465,11.753,11.753,0,0,0,2.525.046A7.168,7.168,0,0,0,19.067.745a.531.531,0,0,1,.448.214.481.481,0,0,1-.046.5,2.8,2.8,0,0,1-.705.748,5.955,5.955,0,0,1-.844.547,7.534,7.534,0,0,1-1.463.606,12.524,12.524,0,0,1-1.707.389,14.768,14.768,0,0,1-1.77.178,11.637,11.637,0,0,1-1.612-.033h-.059A.3.3,0,0,1,11.21,3.915Z" transform="translate(0.032 -0.208)"/><path class="a" d="M42.344,17.654a24.465,24.465,0,0,1,.227-2.455,16.966,16.966,0,0,1,.534-2.442,12.586,12.586,0,0,1,.913-2.267,8.6,8.6,0,0,1,1.364-1.908,3.253,3.253,0,0,1,.57-.5,1.753,1.753,0,0,1,.712-.287,1.275,1.275,0,0,1,1.127.178,1.173,1.173,0,0,1,.415,1.032,8.114,8.114,0,0,1-.109.962,4.667,4.667,0,0,1-.27.949c-.224.583-.409,1.154-.56,1.707s-.283,1.1-.4,1.648-.224,1.1-.33,1.648-.191,1.154-.287,1.77a4.894,4.894,0,0,1-.237,1.018,2.574,2.574,0,0,1-.491.87,1.816,1.816,0,0,1-1.21.626,1.615,1.615,0,0,1-1.045-.33,2.347,2.347,0,0,1-.712-.949A2.706,2.706,0,0,1,42.344,17.654ZM49.891,3.918a1.506,1.506,0,0,1-.274.923,2.775,2.775,0,0,1-.748.774,2.676,2.676,0,0,1-.972.442,1.585,1.585,0,0,1-.949-.049,1.536,1.536,0,0,1-.989-1.589,2,2,0,0,1,.4-1.058,2.211,2.211,0,0,1,.771-.626,2.468,2.468,0,0,1,.926-.25,2.238,2.238,0,0,1,.89.105,1.539,1.539,0,0,1,.682.521A1.318,1.318,0,0,1,49.891,3.918Z" transform="translate(-28.373 -1.658)"/><path class="a" d="M69.209,22.2a1.977,1.977,0,0,0-1.236.073,3.955,3.955,0,0,0-1.186.735,6.44,6.44,0,0,0-1.045,1.19,7.953,7.953,0,0,0-.781,1.411,5.784,5.784,0,0,0-.415,1.4,2.307,2.307,0,0,0,.069,1.163,1.183,1.183,0,0,0,.679.7,2.185,2.185,0,0,0,1.374,0,5.8,5.8,0,0,0,1.519-.89q.686-.554,1.378-1.055a4.644,4.644,0,0,1,.659-.356.428.428,0,0,1,.465.036.422.422,0,0,1,.152.438,2.435,2.435,0,0,1-.105.31c-.04.092-.082.188-.132.283a7.07,7.07,0,0,1-1.374,1.78,8.381,8.381,0,0,1-1.78,1.292A6.44,6.44,0,0,1,65.5,31.4a4.031,4.031,0,0,1-1.849-.069,3.269,3.269,0,0,1-1.519-.989,4.4,4.4,0,0,1-.949-2.017,8.417,8.417,0,0,1,.3-3.335,8.157,8.157,0,0,1,1.529-2.917,7.666,7.666,0,0,1,2.564-2.017,6.723,6.723,0,0,1,3.395-.659,2.422,2.422,0,0,1,1.233.448,1.8,1.8,0,0,1,.616.857,2.429,2.429,0,0,1,.1,1.078,3.121,3.121,0,0,1-.356,1.117,4,4,0,0,1-.735.989,2.907,2.907,0,0,1-1.022.659,1.387,1.387,0,0,1-.461.155l-.488.059a.412.412,0,0,1-.237-.086.419.419,0,0,1-.165-.2.366.366,0,0,1,.023-.224,1.055,1.055,0,0,1,.119-.227,1.285,1.285,0,0,1,.283-.247,3.269,3.269,0,0,0,.31-.227l.57-.567a2.04,2.04,0,0,0,.455-.778Z" transform="translate(-40.974 -12.992)"/><path class="a" d="M96.629,3.343a2.6,2.6,0,0,0-.5-.132,1.394,1.394,0,0,1-.425-.129c-.287-.122-.442-.257-.465-.452s.1-.359.369-.534A14.425,14.425,0,0,1,97.354,1.03,20.458,20.458,0,0,1,99.24.153a1.727,1.727,0,0,1,.369-.1C99.744.031,99.872.011,100,0a.834.834,0,0,1,.659.211.814.814,0,0,1,.224.659,4.374,4.374,0,0,1-.165.877l-2.04,8.068-.119.57.4-.046a8.6,8.6,0,0,0,1.977-1.058,7.959,7.959,0,0,0,1.625-1.552,1.737,1.737,0,0,0,.307-.481c.079-.191.152-.372.214-.547a1.078,1.078,0,0,0,.036-.557.87.87,0,0,0-.33-.488.554.554,0,0,1-.211-.557.6.6,0,0,1,.475-.415,1.157,1.157,0,0,1,.4-.023,2.4,2.4,0,0,1,1.46.7,2.482,2.482,0,0,1,.659,1.506,5.2,5.2,0,0,1-.369,1.935,6.727,6.727,0,0,1-.989,1.734,8.355,8.355,0,0,1-1.424,1.411,7.2,7.2,0,0,1-1.648.989,6.542,6.542,0,0,0,.725,2.149,6.947,6.947,0,0,0,1.163,1.5,7.336,7.336,0,0,0,1.388,1.081c.491.293.949.54,1.378.748a.616.616,0,0,1-.073.544,1.414,1.414,0,0,1-.508.484,2.492,2.492,0,0,1-.784.3,1.829,1.829,0,0,1-.877-.023,7.712,7.712,0,0,1-2.35-.933A7.58,7.58,0,0,1,99.5,17.357a7.076,7.076,0,0,1-1.154-1.78,9.673,9.673,0,0,1-.659-2.017c-.158.554-.33,1.078-.461,1.565a12.655,12.655,0,0,1-.534,1.424,2.966,2.966,0,0,1-.91,1.242,1.648,1.648,0,0,1-1.351.415,1.318,1.318,0,0,1-.989-.89A2.785,2.785,0,0,1,93.231,16a4.023,4.023,0,0,1,.069-.748,7.336,7.336,0,0,1,.191-.748q.55-2.142,1.147-4.291t1.318-4.284q.211-.643.366-1.3C96.412,4.2,96.521,3.768,96.629,3.343Z" transform="translate(-62.488 0.008)"/><path class="a" d="M134.226,25.407a2.508,2.508,0,0,0,.046,1.318,1.378,1.378,0,0,0,.593.735,1.918,1.918,0,0,0,.949.25,3.991,3.991,0,0,0,1.114-.142,5.062,5.062,0,0,0,1.094-.438,4.284,4.284,0,0,0,.877-.62l.168-.082a.867.867,0,0,1,.165-.059.287.287,0,0,1,.422.333.709.709,0,0,1-.033.224c-.023.073-.053.148-.082.227a5.273,5.273,0,0,1-1.246,1.648,5.932,5.932,0,0,1-1.674,1.045,5.435,5.435,0,0,1-1.852.4,4.172,4.172,0,0,1-1.78-.307,3.955,3.955,0,0,1-1.46-1.068,4.215,4.215,0,0,1-.883-1.9,6.489,6.489,0,0,1,.069-3.263,7.8,7.8,0,0,1,1.542-2.857,10.629,10.629,0,0,1,1.414-1.269,7.636,7.636,0,0,1,1.625-.949,5.932,5.932,0,0,1,1.757-.465,4.528,4.528,0,0,1,1.78.168,2.689,2.689,0,0,1,1.625,1.447,3.079,3.079,0,0,1,.26,1.078,2.8,2.8,0,0,1-.178,1.154,4.911,4.911,0,0,1-3.108,3.035,7.682,7.682,0,0,1-1.183.3,4.739,4.739,0,0,1-1.223.059,1.816,1.816,0,0,0-.379,0ZM134.6,23.8a3.408,3.408,0,0,0,1.233-.237,5.013,5.013,0,0,0,2.1-1.506,4.117,4.117,0,0,0,.616-1.022l.073-.237c.079-.412-.089-.593-.5-.544a1.915,1.915,0,0,0-.771.247,5.906,5.906,0,0,0-.679.465,8.3,8.3,0,0,0-1.018,1.091,10.659,10.659,0,0,0-.831,1.259Z" transform="translate(-87.459 -12.162)"/><path class="a" d="M164.747,9.85a1.15,1.15,0,0,1-1.078-.33.659.659,0,0,1,0-.854,3.315,3.315,0,0,1,.25-.31.659.659,0,0,1,.3-.188,4.126,4.126,0,0,1,.771-.142.4.4,0,0,0,.392-.191,6.8,6.8,0,0,0,.27-.659c.105-.277.208-.567.31-.867s.2-.59.31-.867.185-.5.247-.676a.659.659,0,0,0,.073-.415c-.033-.069-.158-.145-.379-.224a1.569,1.569,0,0,1-.33-.168.362.362,0,0,1-.142-.33.5.5,0,0,1,.178-.382.946.946,0,0,1,.33-.165l3.062-.831a.989.989,0,0,1,.2-.023h.2a1.035,1.035,0,0,1,.761.392.844.844,0,0,1,.211.771,17.538,17.538,0,0,1-.735,2.419c-.267.679-.514,1.351-.735,2.017.142,0,.392-.016.748-.046a8.094,8.094,0,0,1,1.055-.026,2.307,2.307,0,0,1,.854.178q.33.158.119.534a2.288,2.288,0,0,1-.534.8,2.132,2.132,0,0,1-.748.468,3.793,3.793,0,0,1-.962.2c-.356.03-.748.046-1.173.046a.857.857,0,0,0-.086.105.8.8,0,0,0-.059.132c-.171.458-.33.989-.508,1.615s-.33,1.249-.465,1.9-.277,1.289-.4,1.921-.247,1.186-.356,1.648a2.452,2.452,0,0,0-.073.33,2.028,2.028,0,0,0-.023.33.455.455,0,0,0,.132.465.537.537,0,0,0,.508,0,1.157,1.157,0,0,0,.346-.142,1.173,1.173,0,0,1,.33-.142,1.2,1.2,0,0,1,.369-.036.452.452,0,0,1,.33.2.508.508,0,0,1-.023.659,5.913,5.913,0,0,1-1.318,1.256,2.867,2.867,0,0,1-1.743.475,2.168,2.168,0,0,1-1.674-.58,2.821,2.821,0,0,1-.676-1.529,7.5,7.5,0,0,1,.026-2.149c.109-.8.26-1.6.448-2.409s.392-1.579.606-2.307S164.638,10.357,164.747,9.85Z" transform="translate(-109.345 -1.493)"/><path class="a" d="M188.719,20.412h-.461a2.208,2.208,0,0,1-.392,0c-.1-.016-.194-.026-.3-.036a.58.58,0,0,1-.274-.082.508.508,0,0,1-.366-.392.5.5,0,0,1,.214-.484,2.271,2.271,0,0,1,.5-.31q.712-.307,1.437-.629t1.477-.58a1.21,1.21,0,0,1,1.018-.023,1.354,1.354,0,0,1,.659.831,2.692,2.692,0,0,1,.1.475,4.854,4.854,0,0,0,.069.5.751.751,0,0,1,0,.224,2.363,2.363,0,0,0,0,.3l.659-.567c.2-.175.419-.33.639-.5a3.678,3.678,0,0,1,2.848-.735,2.554,2.554,0,0,1,2.185,1.948,6.46,6.46,0,0,1-.264,4.008,9.824,9.824,0,0,1-.877,1.793,9.317,9.317,0,0,1-1.226,1.592,7.58,7.58,0,0,1-2.841,1.872,6.971,6.971,0,0,1-3.395.3,1.384,1.384,0,0,0-.191.023q-.28,1.117-.521,2.185t-.508,2.136a3.658,3.658,0,0,1-.356.9,1.72,1.72,0,0,1-.771.725,1.523,1.523,0,0,1-1.009.105,1.668,1.668,0,0,1-.913-.521,1.707,1.707,0,0,1-.438-.989,28.158,28.158,0,0,1,.415-3.55c.211-1.177.475-2.343.781-3.5s.643-2.307.989-3.428.705-2.251,1.055-3.358C188.673,20.636,188.689,20.554,188.719,20.412Zm6.338.31c-.412.27-.811.537-1.2.807a8.033,8.033,0,0,0-1.1.923,6.146,6.146,0,0,0-.936,1.236,7.178,7.178,0,0,0-.7,1.78c-.033.125-.076.283-.132.475s-.119.392-.191.6-.142.425-.211.629-.132.379-.178.524a4.225,4.225,0,0,0,2-.916,7.451,7.451,0,0,0,1.6-1.767,7.3,7.3,0,0,0,.959-2.172A4.551,4.551,0,0,0,195.057,20.722Z" transform="translate(-124.3 -11.913)"/><path class="a" d="M266.674,24a1.275,1.275,0,0,1-.972,0,.544.544,0,0,1-.283-.583,1.859,1.859,0,0,1,.484-.913,4.8,4.8,0,0,1,1.318-1.022,3.378,3.378,0,0,1,1.374-.531,1.7,1.7,0,0,1,1.035.155,1.259,1.259,0,0,1,.593.712,2.122,2.122,0,0,1,.059,1.127c-.033.379-.076.751-.132,1.114s-.105.728-.155,1.091c-.016.129-.036.257-.059.392s-.049.29-.082.461l.379-.4q.5-.57.989-1.2a13.762,13.762,0,0,1,1.041-1.173,9.813,9.813,0,0,1,1.154-.989,4.308,4.308,0,0,1,1.318-.659,1.891,1.891,0,0,1,2.35,1.022,3.987,3.987,0,0,1,.392,1.269,4.709,4.709,0,0,1,0,1.292,30.981,30.981,0,0,1-1.4,5.7,4.139,4.139,0,0,1-.4.821,2.877,2.877,0,0,1-.639.659,1.859,1.859,0,0,1-.926.392,2.336,2.336,0,0,1-.939-.073,1.793,1.793,0,0,1-.722-.392.659.659,0,0,1-.237-.593,3.625,3.625,0,0,1,0-1.292q.109-.84.33-1.816c.145-.659.33-1.318.524-1.958s.4-1.246.593-1.767a.145.145,0,0,0-.1-.1c-.142.142-.29.277-.438.4a3,3,0,0,0-.415.428q-1.091,1.186-2.04,2.432t-1.882,2.564c-.2.27-.409.531-.606.784a3.83,3.83,0,0,1-.712.686,1.714,1.714,0,0,1-.758.346,1.279,1.279,0,0,1-.679-.059,1.117,1.117,0,0,1-.508-.428,1.615,1.615,0,0,1-.264-.781,4.035,4.035,0,0,1,0-.8c.023-.26.049-.517.082-.771q.26-1.493.616-2.848Z" transform="translate(-177.814 -14.03)"/><path class="a" d="M313.045,10.3c.237-.712.465-1.4.689-2.076s.442-1.348.659-2.027a3.9,3.9,0,0,0-.521-.155,2.184,2.184,0,0,1-.5-.178,3.372,3.372,0,0,1-.428-.227,1.229,1.229,0,0,1-.356-.33.494.494,0,0,1-.142-.557.659.659,0,0,1,.475-.369.9.9,0,0,1,.356-.069,6.816,6.816,0,0,0,1.816-.3q.89-.274,1.79-.511a3.048,3.048,0,0,1,.392-.073c.135,0,.274-.023.415-.023a.7.7,0,0,1,.557.142,1.015,1.015,0,0,1,.2.57,4.906,4.906,0,0,1-.119,1.045c-.171.659-.356,1.289-.544,1.921s-.379,1.266-.57,1.9c-.254.84-.5,1.671-.748,2.492s-.5,1.648-.771,2.468-.465,1.648-.689,2.455-.419,1.648-.593,2.5a2.1,2.1,0,0,1-.544,1.137,1.153,1.153,0,0,1-.867.56,1.2,1.2,0,0,1-.844-.33,2.307,2.307,0,0,1-.59-.939,2.551,2.551,0,0,1-.122-1.256,4.886,4.886,0,0,1-.817.854,7.224,7.224,0,0,1-.926.659,5.763,5.763,0,0,1-.9.438,3.744,3.744,0,0,1-.771.214,3.223,3.223,0,0,1-1.424-.073,3.009,3.009,0,0,1-1.9-1.612,3.177,3.177,0,0,1-.31-1.282,5.787,5.787,0,0,1,.082-1.437,10.157,10.157,0,0,1,.369-1.388,7.4,7.4,0,0,1,3.51-4.34,4.868,4.868,0,0,1,1.355-.534,7.115,7.115,0,0,1,1.4-.178,1.978,1.978,0,0,1,1.055.283,8.017,8.017,0,0,1,.87.616ZM308.1,16c-.033.6.053.989.25,1.15a1.133,1.133,0,0,0,1.008.059,2.037,2.037,0,0,0,.817-.4l.725-.57a3.342,3.342,0,0,0,.567-.689,2.175,2.175,0,0,0,.31-.854,8.833,8.833,0,0,1,.26-1.078c.112-.356.214-.718.31-1.081a.989.989,0,0,0,.036-.676c-.073-.135-.274-.227-.606-.274a2.211,2.211,0,0,0-1.21.26,2.769,2.769,0,0,0-.949.784,6.262,6.262,0,0,0-.989,1.648,9.323,9.323,0,0,0-.547,1.72Z" transform="translate(-204.061 -2.276)"/><g transform="translate(75.081 7.253)"><path class="a" d="M229.761,22a1.4,1.4,0,0,0-1.071.488c-.508.521-.7,1.16-.178,1.694a1.364,1.364,0,0,0,.366.244,5.566,5.566,0,0,0-1.1,3.23,3.953,3.953,0,0,0,2.795,3.8h0a3.708,3.708,0,0,1,1.045.659,2.706,2.706,0,0,0,1.846.718,2.91,2.91,0,0,0,1.829-.705h0a3.078,3.078,0,0,1,1.018-.659h.04a3.967,3.967,0,0,0,2.7-3.787,5.55,5.55,0,0,0-1.088-3.217,1.7,1.7,0,0,0,.353-.257,1.074,1.074,0,0,0-.175-1.648c-.521-.471-1.177-.682-1.7-.161a1.589,1.589,0,0,0-.3.405,5.333,5.333,0,0,0-5.481,0,1.568,1.568,0,0,0-.3-.461A.989.989,0,0,0,229.761,22Zm3.662.88a5,5,0,0,1,4.776,4.776,2.983,2.983,0,0,1-2.116,2.966h-.04a3.7,3.7,0,0,0-1.289.8h-.016a2.043,2.043,0,0,1-1.282.534,1.826,1.826,0,0,1-1.275-.5,4.564,4.564,0,0,0-1.318-.814,2.974,2.974,0,0,1-2.238-2.986A5.04,5.04,0,0,1,233.422,22.88Zm-1.437,3.487a2,2,0,0,0-.87.2,1.167,1.167,0,0,0-.33,1.994,1.186,1.186,0,0,0,2-.33c.26-.564.307-1.318-.043-1.615A1.055,1.055,0,0,0,231.985,26.367Zm2.983.053a1.173,1.173,0,0,0-.814.231,1.484,1.484,0,0,0,.178,1.832,1.383,1.383,0,0,0,1.832.178,1.328,1.328,0,0,0-.178-1.832A1.519,1.519,0,0,0,234.968,26.42Zm-2.831.369a.435.435,0,1,1-.435.432.409.409,0,0,1,.435-.432Zm2.6,0a.435.435,0,1,1-.432.432.409.409,0,0,1,.415-.432Zm-2.02,3.025a.134.134,0,0,0-.148.148.873.873,0,0,0,1.737,0c0-.218-.392-.1-.87-.1-.313,0-.58-.069-.735-.053Z" transform="translate(-227.78 -22)"/></g><g transform="translate(112.52 7.388)"><path class="a" d="M343.361,22.41a1.417,1.417,0,0,0-1.071.491c-.521.521-.7,1.173-.178,1.694a1.364,1.364,0,0,0,.366.244,5.566,5.566,0,0,0-1.1,3.23,3.953,3.953,0,0,0,2.795,3.8h0a3.794,3.794,0,0,1,1.045.659,2.706,2.706,0,0,0,1.842.718,2.91,2.91,0,0,0,1.832-.705h0a3.078,3.078,0,0,1,1.018-.659h.04a3.959,3.959,0,0,0,2.7-3.783,5.55,5.55,0,0,0-1.088-3.217,1.7,1.7,0,0,0,.366-.3,1.074,1.074,0,0,0-.175-1.648c-.521-.471-1.177-.682-1.7-.161a1.588,1.588,0,0,0-.3.405,5.332,5.332,0,0,0-5.481,0,1.569,1.569,0,0,0-.3-.461A.989.989,0,0,0,343.361,22.41Zm3.662.883a5,5,0,0,1,4.776,4.776,2.983,2.983,0,0,1-2.116,2.966h-.04a3.747,3.747,0,0,0-1.289.8h-.016a2.043,2.043,0,0,1-1.275.5,1.826,1.826,0,0,1-1.272-.5,4.565,4.565,0,0,0-1.318-.814,2.977,2.977,0,0,1-2.238-2.986A5.018,5.018,0,0,1,347.022,23.293Zm-1.437,3.487a2,2,0,0,0-.87.2,1.167,1.167,0,0,0-.33,1.994,1.186,1.186,0,0,0,2-.33c.26-.564.306-1.318-.043-1.615A1.055,1.055,0,0,0,345.585,26.78Zm2.983.053a1.173,1.173,0,0,0-.814.231,1.484,1.484,0,0,0,.178,1.832,1.383,1.383,0,0,0,1.832.178,1.328,1.328,0,0,0-.178-1.832,1.486,1.486,0,0,0-1.018-.409Zm-2.848.386a.435.435,0,1,1-.435.432.409.409,0,0,1,.435-.432Zm2.6,0a.435.435,0,1,1-.432.432.409.409,0,0,1,.432-.432Zm-2.02,3.022a.136.136,0,0,0-.148.152.873.873,0,0,0,1.737,0c0-.218-.392-.1-.87-.1-.3-.016-.564-.086-.718-.073Z" transform="translate(-341.38 -22.41)"/></g></g></g></svg>