<svg xmlns="http://www.w3.org/2000/svg" width="25.699" height="20.872" viewBox="0 0 25.699 20.872"><defs><style>.a{fill:#fff;}</style></defs><path class="a" d="M23.057,53.284c.016.228.016.457.016.685A14.883,14.883,0,0,1,8.088,68.954,14.884,14.884,0,0,1,0,66.59a10.9,10.9,0,0,0,1.272.065A10.548,10.548,0,0,0,7.811,64.4a5.276,5.276,0,0,1-4.925-3.653,6.642,6.642,0,0,0,.995.082,5.57,5.57,0,0,0,1.386-.179,5.268,5.268,0,0,1-4.223-5.169V55.42a5.3,5.3,0,0,0,2.381.669,5.275,5.275,0,0,1-1.631-7.044,14.971,14.971,0,0,0,10.86,5.512,5.945,5.945,0,0,1-.13-1.207,5.272,5.272,0,0,1,9.115-3.6,10.37,10.37,0,0,0,3.343-1.272,5.253,5.253,0,0,1-2.316,2.9,10.558,10.558,0,0,0,3.033-.815A11.322,11.322,0,0,1,23.057,53.284Z" transform="translate(0 -48.082)"/></svg>